<mxfile host="drawio-plugin" modified="2024-01-10T15:30:06.678Z" agent="5.0 (Windows NT 6.2; Win64; x64) AppleWebKit/537.36 (KHTML, like Gecko) Chrome/104.0.5112.102 Safari/537.36" etag="uMAv0jxluVK51QkeUqAA" version="20.5.3" type="embed"><diagram id="23iRSUPoRavnBvh4doch" name="Page-1"><mxGraphModel dx="1852" dy="659" grid="1" gridSize="10" guides="1" tooltips="1" connect="1" arrows="1" fold="1" page="1" pageScale="1" pageWidth="827" pageHeight="1169" math="0" shadow="0"><root><mxCell id="0"/><mxCell id="1" parent="0"/><mxCell id="2" style="edgeStyle=orthogonalEdgeStyle;rounded=0;orthogonalLoop=1;jettySize=auto;html=1;entryX=0.5;entryY=0;entryDx=0;entryDy=0;" edge="1" parent="1" source="3" target="5"><mxGeometry relative="1" as="geometry"/></mxCell><mxCell id="3" value="Початок" style="ellipse;whiteSpace=wrap;html=1;" vertex="1" parent="1"><mxGeometry x="95" y="100" width="120" height="80" as="geometry"/></mxCell><mxCell id="4" style="edgeStyle=orthogonalEdgeStyle;rounded=0;orthogonalLoop=1;jettySize=auto;html=1;entryX=0.5;entryY=0;entryDx=0;entryDy=0;" edge="1" parent="1" source="5" target="7"><mxGeometry relative="1" as="geometry"/></mxCell><mxCell id="5" value="Вводимо:&lt;br&gt;int [] arr;" style="shape=parallelogram;perimeter=parallelogramPerimeter;whiteSpace=wrap;html=1;fixedSize=1;" vertex="1" parent="1"><mxGeometry x="95" y="240" width="120" height="60" as="geometry"/></mxCell><mxCell id="6" style="edgeStyle=orthogonalEdgeStyle;rounded=0;orthogonalLoop=1;jettySize=auto;html=1;entryX=0.5;entryY=0;entryDx=0;entryDy=0;" edge="1" parent="1" source="7" target="10"><mxGeometry relative="1" as="geometry"/></mxCell><mxCell id="7" value="int index = 1;" style="rounded=0;whiteSpace=wrap;html=1;" vertex="1" parent="1"><mxGeometry x="95" y="350" width="120" height="60" as="geometry"/></mxCell><mxCell id="8" style="edgeStyle=orthogonalEdgeStyle;rounded=0;orthogonalLoop=1;jettySize=auto;html=1;entryX=0.5;entryY=0;entryDx=0;entryDy=0;" edge="1" parent="1" source="10" target="13"><mxGeometry relative="1" as="geometry"/></mxCell><mxCell id="9" style="edgeStyle=orthogonalEdgeStyle;rounded=0;orthogonalLoop=1;jettySize=auto;html=1;exitX=0;exitY=0.25;exitDx=0;exitDy=0;" edge="1" parent="1" source="10"><mxGeometry relative="1" as="geometry"><mxPoint x="-50" y="440.0000000000001" as="targetPoint"/></mxGeometry></mxCell><mxCell id="10" value="int i=0; i&amp;lt;arr.length-1;" style="shape=hexagon;perimeter=hexagonPerimeter2;whiteSpace=wrap;html=1;fixedSize=1;" vertex="1" parent="1"><mxGeometry x="90" y="470" width="130" height="80" as="geometry"/></mxCell><mxCell id="11" style="edgeStyle=orthogonalEdgeStyle;rounded=0;orthogonalLoop=1;jettySize=auto;html=1;entryX=0.5;entryY=0;entryDx=0;entryDy=0;" edge="1" parent="1" source="13" target="15"><mxGeometry relative="1" as="geometry"/></mxCell><mxCell id="12" style="edgeStyle=orthogonalEdgeStyle;rounded=0;orthogonalLoop=1;jettySize=auto;html=1;entryX=0.5;entryY=0;entryDx=0;entryDy=0;" edge="1" parent="1" source="13" target="17"><mxGeometry relative="1" as="geometry"/></mxCell><mxCell id="13" value="&lt;div style=&quot;background-color:#2b2b2b;color:#a9b7c6;font-family:'JetBrains Mono',monospace;font-size:9,8pt;&quot;&gt;&lt;pre&gt;arr[i] &amp;lt;= arr[i + 1]&lt;/pre&gt;&lt;/div&gt;" style="rhombus;whiteSpace=wrap;html=1;" vertex="1" parent="1"><mxGeometry x="82.5" y="590" width="145" height="100" as="geometry"/></mxCell><mxCell id="14" style="edgeStyle=orthogonalEdgeStyle;rounded=0;orthogonalLoop=1;jettySize=auto;html=1;entryX=0;entryY=0.5;entryDx=0;entryDy=0;" edge="1" parent="1" source="15" target="10"><mxGeometry relative="1" as="geometry"><Array as="points"><mxPoint x="-120" y="730"/><mxPoint x="-120" y="510"/></Array></mxGeometry></mxCell><mxCell id="15" value="&lt;div style=&quot;background-color:#2b2b2b;color:#a9b7c6;font-family:'JetBrains Mono',monospace;font-size:9,8pt;&quot;&gt;&lt;pre&gt;i = index;&lt;br&gt;index += &lt;span style=&quot;color:#6897bb;&quot;&gt;1&lt;/span&gt;&lt;span style=&quot;color:#cc7832;&quot;&gt;;&lt;/span&gt;&lt;/pre&gt;&lt;/div&gt;" style="rounded=0;whiteSpace=wrap;html=1;" vertex="1" parent="1"><mxGeometry x="-50" y="700" width="120" height="60" as="geometry"/></mxCell><mxCell id="16" style="edgeStyle=orthogonalEdgeStyle;rounded=0;orthogonalLoop=1;jettySize=auto;html=1;entryX=0.5;entryY=0;entryDx=0;entryDy=0;" edge="1" parent="1" source="17" target="20"><mxGeometry relative="1" as="geometry"/></mxCell><mxCell id="17" value="&lt;div style=&quot;background-color:#2b2b2b;color:#a9b7c6;font-family:'JetBrains Mono',monospace;font-size:9,8pt;&quot;&gt;&lt;pre&gt;int temp = arr[i]&lt;span style=&quot;color:#cc7832;&quot;&gt;;&lt;br&gt;&lt;/span&gt;arr[i] = arr[i + &lt;span style=&quot;color:#6897bb;&quot;&gt;1&lt;/span&gt;]&lt;span style=&quot;color:#cc7832;&quot;&gt;;&lt;br&gt;&lt;/span&gt;arr[i + &lt;span style=&quot;color:#6897bb;&quot;&gt;1&lt;/span&gt;] = temp&lt;span style=&quot;color:#cc7832;&quot;&gt;;&lt;br&gt;&lt;/span&gt;i = i - &lt;span style=&quot;color:#6897bb;&quot;&gt;1&lt;/span&gt;&lt;span style=&quot;color:#cc7832;&quot;&gt;;&lt;/span&gt;&lt;/pre&gt;&lt;/div&gt;" style="rounded=0;whiteSpace=wrap;html=1;" vertex="1" parent="1"><mxGeometry x="270" y="700" width="200" height="80" as="geometry"/></mxCell><mxCell id="18" style="edgeStyle=orthogonalEdgeStyle;rounded=0;orthogonalLoop=1;jettySize=auto;html=1;entryX=0.5;entryY=0;entryDx=0;entryDy=0;" edge="1" parent="1" source="20" target="22"><mxGeometry relative="1" as="geometry"/></mxCell><mxCell id="19" style="edgeStyle=orthogonalEdgeStyle;rounded=0;orthogonalLoop=1;jettySize=auto;html=1;entryX=1;entryY=0.5;entryDx=0;entryDy=0;" edge="1" parent="1" source="20" target="10"><mxGeometry relative="1" as="geometry"><Array as="points"><mxPoint x="510" y="855"/><mxPoint x="510" y="510"/></Array></mxGeometry></mxCell><mxCell id="20" value="&lt;div style=&quot;background-color:#2b2b2b;color:#a9b7c6;font-family:'JetBrains Mono',monospace;font-size:9,8pt;&quot;&gt;&lt;pre&gt;i &amp;lt; 0&lt;/pre&gt;&lt;/div&gt;" style="rhombus;whiteSpace=wrap;html=1;" vertex="1" parent="1"><mxGeometry x="320" y="810" width="100" height="90" as="geometry"/></mxCell><mxCell id="21" style="edgeStyle=orthogonalEdgeStyle;rounded=0;orthogonalLoop=1;jettySize=auto;html=1;entryX=1;entryY=0.5;entryDx=0;entryDy=0;" edge="1" parent="1" source="22" target="10"><mxGeometry relative="1" as="geometry"><Array as="points"><mxPoint x="510" y="970"/><mxPoint x="510" y="510"/></Array></mxGeometry></mxCell><mxCell id="22" value="&lt;div style=&quot;background-color:#2b2b2b;color:#a9b7c6;font-family:'JetBrains Mono',monospace;font-size:9,8pt;&quot;&gt;&lt;pre&gt;i = index;&lt;br&gt;index += &lt;span style=&quot;color:#6897bb;&quot;&gt;1&lt;/span&gt;&lt;span style=&quot;color:#cc7832;&quot;&gt;;&lt;/span&gt;&lt;/pre&gt;&lt;/div&gt;" style="rounded=0;whiteSpace=wrap;html=1;" vertex="1" parent="1"><mxGeometry x="310" y="940" width="120" height="60" as="geometry"/></mxCell><mxCell id="23" value="Так" style="text;html=1;align=center;verticalAlign=middle;resizable=0;points=[];autosize=1;strokeColor=none;fillColor=none;" vertex="1" parent="1"><mxGeometry x="370" y="890" width="40" height="30" as="geometry"/></mxCell><mxCell id="24" value="Так" style="text;html=1;align=center;verticalAlign=middle;resizable=0;points=[];autosize=1;strokeColor=none;fillColor=none;" vertex="1" parent="1"><mxGeometry x="55" y="610" width="40" height="30" as="geometry"/></mxCell><mxCell id="25" value="Ні" style="text;html=1;align=center;verticalAlign=middle;resizable=0;points=[];autosize=1;strokeColor=none;fillColor=none;" vertex="1" parent="1"><mxGeometry x="410" y="830" width="30" height="30" as="geometry"/></mxCell><mxCell id="26" value="Ні" style="text;html=1;align=center;verticalAlign=middle;resizable=0;points=[];autosize=1;strokeColor=none;fillColor=none;" vertex="1" parent="1"><mxGeometry x="215" y="610" width="30" height="30" as="geometry"/></mxCell><mxCell id="27" value="Так" style="text;html=1;align=center;verticalAlign=middle;resizable=0;points=[];autosize=1;strokeColor=none;fillColor=none;" vertex="1" parent="1"><mxGeometry x="150" y="550" width="40" height="30" as="geometry"/></mxCell><mxCell id="28" value="Ні" style="text;html=1;align=center;verticalAlign=middle;resizable=0;points=[];autosize=1;strokeColor=none;fillColor=none;" vertex="1" parent="1"><mxGeometry x="70" y="470" width="30" height="30" as="geometry"/></mxCell><mxCell id="29" value="Кінець" style="ellipse;whiteSpace=wrap;html=1;" vertex="1" parent="1"><mxGeometry x="-110" y="360" width="120" height="80" as="geometry"/></mxCell><mxCell id="30" value="Найкращий - O (n)&lt;br&gt;Середній - O(n&lt;sup&gt;2&lt;/sup&gt;)&lt;br&gt;Найгірший - O(n&lt;sup style=&quot;border-color: var(--border-color);&quot;&gt;2&lt;/sup&gt;)" style="text;html=1;align=center;verticalAlign=middle;resizable=0;points=[];autosize=1;strokeColor=none;fillColor=none;" vertex="1" parent="1"><mxGeometry x="245" y="180" width="130" height="60" as="geometry"/></mxCell></root></mxGraphModel></diagram></mxfile>